<?xml version="1.0" encoding="UTF-8"?><svg id="_レイヤー_2" xmlns="http://www.w3.org/2000/svg" viewBox="0 0 1196.58 864"><defs><style>.cls-1{fill:#ff5722;}.cls-2{fill:none;}</style></defs><g id="_レイヤー_1-2"><g id="SvgjsG1355"><path class="cls-2" d="m479.16,310.26l46.86,17.33c7.25,2.7,19.08,2.7,26.34,0l46.87-17.33c7.25-2.67,7.25-7.06,0-9.73l-46.87-17.36c-7.25-2.66-19.1-2.66-26.34,0l-46.86,17.36c-7.24,2.67-7.24,7.06,0,9.73Z"/><path class="cls-1" d="m396.63,765.04l7.01-3.09c-7.01,3.09-13.88,6.23-20.62,9.34-15,6.98-29.26,13.92-42.52,20.73-60.42,30.95-100.41,58.69-96.09,68.45,4.33,9.73,51.74-1.25,115.23-25.29,13.97-5.25,28.67-11.16,43.89-17.61,6.86-2.9,13.81-5.9,20.8-9.01l-6.99,3.12c-7.61,3.25,13.4-5.05,46.66-18.38l732.59-294.19v-123.91l-754.95,367.6c-32.27,15.73-52.49,25.73-45,22.26Z"/><path class="cls-1" d="m581,779.98c31.67,12.38,82.99,12.38,114.64,0l299.4-116.83c17.2-6.73,25.13-14.52,25.68-24.77v.97l.1-30.03-440.6,170.36.79.3Z"/><path class="cls-1" d="m865.46,161.21c-24.23,11.82-63.92,31.13-88.17,42.94l-6.44,3.15,119.85,46.79c4.87-1.94,9.46-3.8,13.59-5.44l292.28-117.38V0l-331.12,161.21Z"/><path class="cls-1" d="m114.8,517.9l5.29-2.3c-5.29,2.3-10.47,4.7-15.55,7.05-11.27,5.23-22.01,10.47-32,15.58C27.08,561.53-3.02,582.39.24,589.75c3.26,7.35,38.95-.95,86.71-19.04,10.5-3.96,21.58-8.39,33.03-13.26,5.15-2.19,10.38-4.44,15.66-6.77l-5.27,2.34c-5.72,2.46,10.11-3.76,35.14-13.83l56.15-22.55v-51l-73.01,35.52c-24.25,11.81-39.49,19.37-33.84,16.74Z"/><path class="cls-1" d="m439.99,323.04l52.95,19.6,92.31,34.14,14.64,5.43c24.72,9.15,65.2,9.15,89.92,0l159.89-59.17c24.67-9.16,24.67-24.13-.05-33.28l-24.86-9.21-116.14-42.96-18.86-6.99c-24.72-9.16-65.19-9.16-89.91,0l-159.88,59.18c-24.73,9.13-24.73,24.11-.01,33.25Zm39.16-22.51l46.86-17.36c7.24-2.66,19.08-2.66,26.34,0l46.87,17.36c7.25,2.67,7.25,7.06,0,9.73l-46.87,17.33c-7.25,2.7-19.08,2.7-26.34,0l-46.86-17.33c-7.24-2.67-7.24-7.06,0-9.73Z"/><path class="cls-1" d="m281.63,663.14l136.22,53.18,56.88-26.78,546.06-257.21v-104.79c-3.61,5.25-10.62,10.24-21.23,14.36l-303.18,118.31c-32.03,12.53-84.01,12.53-116.1,0l-102.89-40.15-79.68-31.11-120.65-47.05c-10.56-4.15-17.6-9.13-21.18-14.39v307.4c.84,10.48,6.09,20.56,25.76,28.22Zm-.95-295.39l33.71,13.34v264.98l-33.71-14v-264.32Z"/></g></g></svg>