
        <svg xmlns="http://www.w3.org/2000/svg" xmlns:xlink="http://www.w3.org/1999/xlink" version="1.1" width="3200" height="3200" viewBox="0 0 3200 3200">
			
			<g transform="scale(10) translate(10, 10)">
				<defs id="SvgjsDefs1353"/><g id="SvgjsG1354" featureKey="rootContainer" transform="matrix(1.4961996856738697,0,0,1.4961996856738697,0,0)" fill="#fff"><path xmlns="http://www.w3.org/2000/svg" d="M100.254 0C44.974 0 0 44.974 0 100.254s44.974 100.254 100.254 100.254c55.28 0 100.254-44.974 100.254-100.254S155.534 0 100.254 0zm0 195.508C47.731 195.508 5 152.777 5 100.254S47.731 5 100.254 5s95.254 42.73 95.254 95.254-42.731 95.254-95.254 95.254z"/></g><g id="SvgjsG1355" featureKey="symbolFeature-0" transform="matrix(1.1987838367406045,0,0,1.1987838367406045,89.77956437541853,30.510602515699038)" fill="#fff"><g xmlns="http://www.w3.org/2000/svg"><path d="M40.154,43.807l3.909,1.446c0.605,0.225,1.592,0.225,2.197,0l3.91-1.446c0.605-0.223,0.605-0.589,0-0.812   l-3.91-1.448c-0.605-0.222-1.593-0.222-2.197,0l-3.909,1.448C39.55,43.218,39.55,43.584,40.154,43.807z"/><path d="M33.27,81.744c0,0,0,0,0.585-0.258c-0.585,0.258-1.158,0.52-1.72,0.779c-1.251,0.582-2.441,1.161-3.547,1.729   c-5.04,2.582-8.376,4.896-8.016,5.71c0.361,0.812,4.316-0.104,9.612-2.11c1.165-0.438,2.392-0.931,3.661-1.469   c0.572-0.242,1.152-0.492,1.735-0.752c-0.583,0.26-0.583,0.26-0.583,0.26c-0.635,0.271,1.118-0.421,3.892-1.533L100,59.559V49.223   L37.024,79.887C34.332,81.199,32.645,82.033,33.27,81.744z"/><path d="M48.65,82.99c2.642,1.033,6.923,1.033,9.563,0l24.975-9.746c1.435-0.561,2.096-1.211,2.142-2.066v0.081l0.008-2.505   L48.584,82.965L48.65,82.99z"/><path d="M72.379,31.374c-2.021,0.986-5.332,2.597-7.355,3.582l-0.537,0.263l9.998,3.903c0.406-0.162,0.789-0.317,1.134-0.454   L100,28.876v-10.95L72.379,31.374z"/><path d="M9.76,61.128c0,0,0,0,0.441-0.192c-0.441,0.192-0.873,0.392-1.297,0.588c-0.94,0.436-1.836,0.873-2.669,1.3   c-3.792,1.944-6.303,3.684-6.031,4.298c0.272,0.613,3.249-0.079,7.233-1.588c0.876-0.33,1.8-0.7,2.755-1.106   c0.43-0.183,0.866-0.37,1.306-0.565c-0.44,0.195-0.44,0.195-0.44,0.195c-0.477,0.205,0.843-0.314,2.931-1.154l4.684-1.881v-4.254   l-6.09,2.963C10.56,60.717,9.289,61.348,9.76,61.128z"/><path d="M36.887,44.873l4.417,1.635l7.7,2.848l1.221,0.453c2.062,0.763,5.439,0.763,7.501,0l13.338-4.936   c2.058-0.764,2.058-2.013-0.004-2.776l-2.074-0.768l-9.688-3.584l-1.573-0.583c-2.062-0.764-5.438-0.764-7.5,0l-13.337,4.937   C34.825,42.861,34.825,44.11,36.887,44.873z M40.154,42.995l3.909-1.448c0.604-0.222,1.592-0.222,2.197,0l3.91,1.448   c0.605,0.223,0.605,0.589,0,0.812l-3.91,1.446c-0.605,0.225-1.592,0.225-2.197,0l-3.909-1.446   C39.55,43.584,39.55,43.218,40.154,42.995z"/><path d="M23.677,73.244L35.04,77.68l4.745-2.234l45.551-21.456v-8.741c-0.301,0.438-0.886,0.854-1.771,1.198l-25.291,9.869   c-2.672,1.045-7.008,1.045-9.685,0l-8.583-3.349l-6.647-2.595l-10.064-3.925c-0.881-0.346-1.468-0.762-1.767-1.2v10.888v4.252   v10.503C21.598,71.764,22.036,72.605,23.677,73.244z M23.598,48.603l2.812,1.113V71.82l-2.812-1.168V48.603z"/></g></g><g id="SvgjsG1356" featureKey="nameFeature-0" transform="matrix(0.9973967785800762,0,0,0.9973967785800762,45.97051705258416,147.46748959967005)" fill="#fff"><path d="M13.32 28.6 l-6.2 0 l0 11.4 l-3.08 0 l0 -29.16 l9.76 0 c7.12 -0.04 10.24 4.24 10.24 8.76 c0 2.52 -0.96 4.72 -2.68 6.36 c-1.76 1.64 -4.6 2.64 -8.04 2.64 z M13.56 13.719999999999999 l-6.44 0 l0 12.04 l6.28 0 c2.6 0 4.64 -0.76 5.8 -1.96 c1.16 -1.16 1.72 -2.6 1.72 -4.12 c0 -2.84 -1.64 -5.96 -7.36 -5.96 z M51.787 40 l-3.2 -7.44 l-15.88 0 l-3.2 7.44 l-3.12 0 l12.56 -29.16 l3.48 0 l12.6 29.16 l-3.24 0 z M47.427 29.759999999999998 l-6.8 -15.76 l-6.76 15.76 l13.56 0 z M85.614 19.2 l-2.92 1.04 c-0.36 -1.04 -0.84 -2.12 -2 -3.44 c-0.56 -0.6 -1.2 -1.2 -1.92 -1.68 c-1.44 -1 -3.68 -1.72 -6.12 -1.72 c-2.2 0 -4.16 0.52 -5.92 1.64 s-3.12 2.56 -4.08 4.4 c-0.96 1.8 -1.44 3.76 -1.44 5.92 c0 3.28 1.12 6.32 3.04 8.52 c1.96 2.2 5 3.56 8.44 3.56 c2.6 0 5.08 -0.84 6.96 -2.28 s3.16 -3.76 3.32 -6.44 l-12.16 0 l0 -2.84 l15.44 0 l0 1.12 c0 3.68 -1.32 7 -3.6 9.4 c-2.32 2.4 -5.88 3.88 -10 3.88 c-4.36 0 -8.16 -1.6 -10.64 -4.24 s-3.96 -6.4 -3.96 -10.52 c0 -2.76 0.64 -5.32 1.92 -7.6 s3.04 -4.08 5.28 -5.4 s4.76 -1.96 7.48 -1.96 c3.44 0 6.48 0.96 8.56 2.64 c2.12 1.64 3.52 3.64 4.32 6 z M120.201 25.36 c0 2.76 -0.64 5.28 -1.88 7.56 c-1.28 2.28 -3.04 4.08 -5.28 5.4 c-2.28 1.32 -4.76 2 -7.56 2 c-2.04 0 -3.96 -0.4 -5.8 -1.16 c-1.8 -0.76 -3.36 -1.8 -4.64 -3.16 c-1.28 -1.28 -2.28 -2.84 -3.04 -4.68 c-0.72 -1.84 -1.12 -3.76 -1.12 -5.8 c0 -2.76 0.64 -5.28 1.92 -7.56 c1.24 -2.28 3 -4.12 5.28 -5.44 c2.24 -1.32 4.76 -1.96 7.52 -1.96 c2.04 0 3.96 0.36 5.8 1.12 c1.8 0.8 3.36 1.84 4.64 3.12 c1.28 1.36 2.32 2.92 3.04 4.72 c0.76 1.84 1.12 3.76 1.12 5.84 z M117.041 25.52 c0 -3.28 -1.2 -6.32 -3.2 -8.52 s-5 -3.6 -8.36 -3.6 c-2.16 0 -4.12 0.56 -5.88 1.6 c-1.76 1.12 -3.12 2.56 -4.08 4.36 c-0.96 1.84 -1.44 3.84 -1.44 6 c0 3.24 1.2 6.32 3.2 8.48 c2 2.2 5 3.6 8.32 3.6 c2.16 0 4.12 -0.56 5.88 -1.64 c1.8 -1.04 3.16 -2.52 4.12 -4.32 s1.44 -3.8 1.44 -5.96 z M136.708 13.719999999999999 l0 26.28 l-3.04 0 l0 -26.28 l-9.76 0 l0 -2.88 l22.56 0 l0 2.88 l-9.76 0 z M161.775 13.719999999999999 l0 26.28 l-3.04 0 l0 -26.28 l-9.76 0 l0 -2.88 l22.56 0 l0 2.88 l-9.76 0 z M204.562 25.36 c0 2.76 -0.64 5.28 -1.88 7.56 c-1.28 2.28 -3.04 4.08 -5.28 5.4 c-2.28 1.32 -4.76 2 -7.56 2 c-2.04 0 -3.96 -0.4 -5.8 -1.16 c-1.8 -0.76 -3.36 -1.8 -4.64 -3.16 c-1.28 -1.28 -2.28 -2.84 -3.04 -4.68 c-0.72 -1.84 -1.12 -3.76 -1.12 -5.8 c0 -2.76 0.64 -5.28 1.92 -7.56 c1.24 -2.28 3 -4.12 5.28 -5.44 c2.24 -1.32 4.76 -1.96 7.52 -1.96 c2.04 0 3.96 0.36 5.8 1.12 c1.8 0.8 3.36 1.84 4.64 3.12 c1.28 1.36 2.32 2.92 3.04 4.72 c0.76 1.84 1.12 3.76 1.12 5.84 z M201.40200000000002 25.52 c0 -3.28 -1.2 -6.32 -3.2 -8.52 s-5 -3.6 -8.36 -3.6 c-2.16 0 -4.12 0.56 -5.88 1.6 c-1.76 1.12 -3.12 2.56 -4.08 4.36 c-0.96 1.84 -1.44 3.84 -1.44 6 c0 3.24 1.2 6.32 3.2 8.48 c2 2.2 5 3.6 8.32 3.6 c2.16 0 4.12 -0.56 5.88 -1.64 c1.8 -1.04 3.16 -2.52 4.12 -4.32 s1.44 -3.8 1.44 -5.96 z"/></g><g id="SvgjsG1357" featureKey="nameFeature-1" transform="matrix(1.7125046798535921,0,0,1.7125046798535921,46.91749165792212,179.98445325036124)" fill="#fff"><path d="M12.12 40.28 c-2.76 0 -5.4 -1.04 -7.12 -2.56 c-1.8 -1.56 -2.96 -3.64 -3.2 -5.68 l2.88 -0.8 c0.32 1.72 1.2 3.16 2.64 4.36 c1.4 1.2 3 1.8 4.8 1.8 c1.68 0 3.24 -0.4 4.48 -1.28 c1.24 -0.84 2.04 -2.28 2.04 -4.04 c0 -2.04 -1.08 -3.36 -2.44 -4.16 c-0.96 -0.56 -1.8 -0.8 -2.76 -1 l-3.84 -0.76 c-0.8 -0.16 -1.64 -0.44 -2.56 -0.84 c-0.92 -0.44 -1.72 -0.96 -2.4 -1.64 c-1.36 -1.32 -2.04 -3 -2.04 -5.04 c0 -1.6 0.44 -3.04 1.32 -4.28 c0.88 -1.28 2 -2.2 3.4 -2.88 c1.4 -0.64 2.88 -0.96 4.52 -0.96 c6.28 0 9.04 3.88 9.64 7 l-2.8 0.88 c-0.48 -2.08 -2.36 -5.04 -6.88 -5.04 c-3.12 -0.08 -6.16 2.12 -6.12 5.16 c0 2.24 1.4 4.04 4.24 4.6 l3.68 0.72 c2.48 0.48 4.4 1.32 5.68 2.56 c0.88 0.8 1.52 1.72 1.92 2.68 c0.4 1 0.6 1.88 0.6 2.68 c0.04 5.12 -4.28 8.64 -9.68 8.52 z M47.307 10.84 l3.08 0 l0 17.76 c0 3.68 -1 6.56 -2.88 8.6 c-1.92 2.04 -4.64 3.08 -8.12 3.08 c-3.44 0 -6.16 -1.04 -8.04 -3.12 c-1.92 -2.08 -2.88 -4.84 -2.88 -8.36 l0 -17.96 l3.04 0 l0 17.8 c0 3.08 0.88 5.44 2.32 6.76 c1.48 1.36 3.36 2 5.72 2 c2.48 0 4.4 -0.72 5.76 -2.24 c1.32 -1.52 2 -3.6 2 -6.36 l0 -17.96 z M67.054 40.28 c-2.76 0 -5.4 -1.04 -7.12 -2.56 c-1.8 -1.56 -2.96 -3.64 -3.2 -5.68 l2.88 -0.8 c0.32 1.72 1.2 3.16 2.64 4.36 c1.4 1.2 3 1.8 4.8 1.8 c1.68 0 3.24 -0.4 4.48 -1.28 c1.24 -0.84 2.04 -2.28 2.04 -4.04 c0 -2.04 -1.08 -3.36 -2.44 -4.16 c-0.96 -0.56 -1.8 -0.8 -2.76 -1 l-3.84 -0.76 c-0.8 -0.16 -1.64 -0.44 -2.56 -0.84 c-0.92 -0.44 -1.72 -0.96 -2.4 -1.64 c-1.36 -1.32 -2.04 -3 -2.04 -5.04 c0 -1.6 0.44 -3.04 1.32 -4.28 c0.88 -1.28 2 -2.2 3.4 -2.88 c1.4 -0.64 2.88 -0.96 4.52 -0.96 c6.28 0 9.04 3.88 9.64 7 l-2.8 0.88 c-0.48 -2.08 -2.36 -5.04 -6.88 -5.04 c-3.12 -0.08 -6.16 2.12 -6.12 5.16 c0 2.24 1.4 4.04 4.24 4.6 l3.68 0.72 c2.48 0.48 4.4 1.32 5.68 2.56 c0.88 0.8 1.52 1.72 1.92 2.68 c0.4 1 0.6 1.88 0.6 2.68 c0.04 5.12 -4.28 8.64 -9.68 8.52 z M103.441 40 l0 -13.36 l-16.6 0 l0 13.36 l-3.08 0 l0 -29.16 l3.08 0 l0 12.92 l16.6 0 l0 -12.92 l3.08 0 l0 29.16 l-3.08 0 z M115.50800000000001 40 l0 -29.16 l3.08 0 l0 29.16 l-3.08 0 z"/></g>
			</g>
		</svg>
	